<svg xmlns="http://www.w3.org/2000/svg" width="188" height="41" viewBox="0 0 188 41" fill="none">
<g id="intentx__Logo 01 1">
<path id="Vector" d="M4.08352 27.7096C3.94056 27.8628 3.76912 27.9835 3.57985 28.0643C3.39057 28.145 3.18751 28.1841 2.98325 28.179C2.77899 28.1841 2.57593 28.145 2.38666 28.0643C2.19738 27.9835 2.02594 27.8628 1.88298 27.7096C1.73702 27.5595 1.62199 27.3796 1.54505 27.1809C1.46811 26.9822 1.4309 26.7691 1.43572 26.5547V15.0027C1.43493 14.789 1.47433 14.5772 1.55166 14.3795C1.62898 14.1818 1.74272 14.0021 1.88634 13.8506C2.02996 13.6991 2.20065 13.5789 2.38862 13.4968C2.5766 13.4147 2.77816 13.3723 2.98176 13.3721C3.18611 13.3711 3.38864 13.4125 3.57765 13.4941C3.76666 13.5756 3.9384 13.6957 4.08297 13.8473C4.22754 13.9989 4.34208 14.179 4.41996 14.3774C4.49785 14.5757 4.53754 14.7882 4.53675 15.0027V26.5547C4.54035 26.7695 4.502 26.9828 4.42405 27.1814C4.3461 27.38 4.23021 27.5598 4.08352 27.7096Z" fill="white"/>
<path id="Vector_2" d="M29.6685 19.4372C29.5741 18.955 29.3869 18.4982 29.1184 18.0946C28.8254 17.6652 28.4437 17.3111 28.0017 17.0586C27.5266 16.7749 26.9223 16.633 26.1888 16.633H14.5063C13.7509 16.633 13.1411 16.7749 12.677 17.0586C12.2418 17.3144 11.866 17.6682 11.5767 18.0946C11.3103 18.4987 11.1251 18.9555 11.0325 19.4372C10.9393 19.8778 10.8893 20.3271 10.8834 20.7783V26.5543C10.8827 26.8767 10.7911 27.1917 10.6203 27.4595C10.4494 27.7274 10.2068 27.9362 9.92307 28.0597C9.63936 28.1832 9.32718 28.2158 9.02584 28.1534C8.72451 28.0911 8.44749 27.9365 8.22966 27.7092C8.0837 27.5592 7.96867 27.3792 7.89173 27.1806C7.81479 26.9819 7.77758 26.7687 7.7824 26.5543V20.7783C7.78571 19.895 7.92207 19.0177 8.18643 18.1791C8.44663 17.3237 8.84338 16.521 9.35975 15.8051C9.87026 15.0973 10.5079 14.5014 11.2368 14.0509C11.9938 13.5918 12.8553 13.357 13.7295 13.3717H27.2965C28.1347 13.4023 28.9502 13.6658 29.6596 14.1354C30.3474 14.5972 30.9458 15.1914 31.4233 15.8865C31.9147 16.6 32.2919 17.3929 32.54 18.2338C32.7936 19.057 32.9249 19.9163 32.9291 20.7815V26.5575C32.9291 26.9899 32.7654 27.4047 32.4741 27.7105C32.1827 28.0163 31.7876 28.1881 31.3756 28.1881C30.9636 28.1881 30.5684 28.0163 30.2771 27.7105C29.9858 27.4047 29.8221 26.9899 29.8221 26.5575V20.7783C29.8147 20.327 29.7633 19.8776 29.6685 19.4372Z" fill="white"/>
<path id="Vector_3" d="M61.3124 13.8476C61.5304 14.0757 61.679 14.3666 61.7392 14.6834C61.7994 15.0002 61.7687 15.3286 61.6508 15.627C61.5329 15.9254 61.3332 16.1804 61.0771 16.3595C60.821 16.5386 60.5199 16.6339 60.2122 16.6331H50.6303V26.5545C50.6303 26.7686 50.5901 26.9807 50.512 27.1785C50.434 27.3763 50.3195 27.5561 50.1753 27.7075C50.031 27.8589 49.8598 27.979 49.6713 28.061C49.4828 28.1429 49.2808 28.1851 49.0768 28.1851C48.8728 28.1851 48.6708 28.1429 48.4823 28.061C48.2938 27.979 48.1226 27.8589 47.9783 27.7075C47.834 27.5561 47.7196 27.3763 47.6415 27.1785C47.5635 26.9807 47.5233 26.7686 47.5233 26.5545V16.6331H37.8117C37.4278 16.5907 37.0714 16.4039 36.8083 16.1073C36.6719 15.9617 36.5644 15.789 36.4922 15.5993C36.4201 15.4096 36.3846 15.2067 36.3879 15.0025C36.3871 14.7881 36.4268 14.5757 36.5046 14.3775C36.5823 14.1793 36.6967 13.9992 36.8412 13.8476C36.9856 13.6961 37.1571 13.576 37.346 13.4943C37.5348 13.4127 37.7372 13.3711 37.9414 13.3719H60.2122C60.4169 13.3676 60.6202 13.4077 60.8095 13.4895C60.9988 13.5714 61.17 13.6933 61.3124 13.8476Z" fill="white"/>
<path id="Vector_4" d="M71.6697 16.633C70.9133 16.633 70.3035 16.7748 69.8403 17.0586C69.4052 17.3144 69.0294 17.6682 68.7401 18.0946C68.4716 18.4981 68.2844 18.955 68.1899 19.4372C67.9951 20.3201 67.9951 21.2381 68.1899 22.121C68.2847 22.6026 68.4718 23.0589 68.7401 23.4621C69.029 23.8889 69.4049 24.2428 69.8403 24.4981C70.3045 24.7829 70.9143 24.9248 71.6697 24.9237H89.5051C89.7091 24.9237 89.9111 24.9659 90.0996 25.0478C90.288 25.1298 90.4593 25.2499 90.6035 25.4013C90.7478 25.5527 90.8622 25.7325 90.9403 25.9303C91.0184 26.1282 91.0586 26.3402 91.0586 26.5543C91.0586 26.7685 91.0184 26.9805 90.9403 27.1783C90.8622 27.3762 90.7478 27.5559 90.6035 27.7073C90.4593 27.8588 90.288 27.9789 90.0996 28.0608C89.9111 28.1428 89.7091 28.1849 89.5051 28.1849H70.6335C69.8002 28.2003 68.9801 27.9646 68.2705 27.5058C67.578 27.0509 66.9785 26.4562 66.5067 25.7562C66.0135 25.0263 65.6363 24.2172 65.3901 23.3604C65.1382 22.525 65.0075 21.6546 65.0024 20.7783C65.0058 19.895 65.1421 19.0177 65.4065 18.1791C65.6691 17.3218 66.0683 16.5175 66.5872 15.8004C67.0987 15.0943 67.7369 14.4999 68.4658 14.0509C69.2223 13.5919 70.0833 13.3572 70.957 13.3717H89.5051C89.9171 13.3717 90.3122 13.5435 90.6035 13.8493C90.8949 14.1551 91.0586 14.5699 91.0586 15.0023C91.0586 15.4348 90.8949 15.8496 90.6035 16.1554C90.3122 16.4612 89.9171 16.633 89.5051 16.633H71.6697ZM89.2471 19.6234C89.4652 19.8516 89.6138 20.1426 89.674 20.4596C89.7342 20.7765 89.7033 21.1051 89.5852 21.4036C89.4671 21.7021 89.2672 21.957 89.0109 22.136C88.7545 22.315 88.4533 22.41 88.1454 22.4089H72.026C71.614 22.4089 71.2188 22.2371 70.9275 21.9313C70.6362 21.6255 70.4725 21.2108 70.4725 20.7783C70.4725 20.3459 70.6362 19.9311 70.9275 19.6253C71.2188 19.3195 71.614 19.1477 72.026 19.1477H88.1454C88.3502 19.1439 88.5537 19.1842 88.7431 19.266C88.9326 19.3478 89.1041 19.4694 89.2471 19.6234Z" fill="white"/>
<path id="Vector_5" d="M116.793 13.8475C117.01 13.6187 117.287 13.4628 117.589 13.3996C117.891 13.3364 118.203 13.3687 118.488 13.4924C118.772 13.6161 119.015 13.8257 119.186 14.0945C119.356 14.3634 119.447 14.6794 119.446 15.0024V24.8894C119.456 25.3238 119.382 25.7558 119.228 26.1592C119.074 26.5627 118.844 26.9292 118.552 27.2367C118.265 27.5475 117.92 27.7926 117.538 27.9563C117.157 28.1201 116.747 28.199 116.335 28.1881C115.74 28.1854 115.157 28.0094 114.652 27.6795L99.8263 18.165C99.4163 17.9162 99.0809 17.719 98.8066 17.5704C98.6044 17.4445 98.3774 17.369 98.1431 17.3497C97.8196 17.3497 97.6139 17.5657 97.5289 17.996C97.4281 18.613 97.3847 19.2387 97.3992 19.8645V26.5575C97.4056 26.776 97.3702 26.9936 97.295 27.1975C97.2198 27.4013 97.1063 27.5872 96.9614 27.7442C96.8164 27.9011 96.6429 28.0259 96.4511 28.1111C96.2593 28.1963 96.0532 28.2402 95.8449 28.2402C95.6367 28.2402 95.4305 28.1963 95.2388 28.1111C95.047 28.0259 94.8735 27.9011 94.7285 27.7442C94.5835 27.5872 94.4701 27.4013 94.3949 27.1975C94.3197 26.9936 94.2842 26.776 94.2907 26.5575V16.6674C94.2807 16.233 94.3548 15.801 94.5086 15.3975C94.6624 14.994 94.8925 14.6275 95.1852 14.3201C95.472 14.0093 95.8171 13.7642 96.1987 13.6005C96.5802 13.4367 96.99 13.3578 97.4021 13.3687C97.705 13.3682 98.0064 13.4141 98.2967 13.5048C98.5762 13.5906 98.8431 13.7165 99.0898 13.8788L113.914 23.3918C114.324 23.6401 114.664 23.8383 114.933 23.9864C115.136 24.1124 115.364 24.1878 115.598 24.2071C115.922 24.2071 116.126 23.9927 116.213 23.5608C116.313 22.9438 116.357 22.3181 116.342 21.6923V15.0024C116.338 14.7878 116.376 14.5745 116.453 14.3758C116.53 14.1771 116.646 13.9973 116.793 13.8475Z" fill="white"/>
<path id="Vector_6" d="M147.608 13.8476C147.826 14.0757 147.974 14.3666 148.034 14.6834C148.095 15.0002 148.064 15.3286 147.946 15.627C147.828 15.9254 147.628 16.1804 147.372 16.3595C147.116 16.5386 146.815 16.6339 146.507 16.6331H136.925V26.5545C136.925 26.9869 136.762 27.4017 136.47 27.7075C136.179 28.0133 135.784 28.1851 135.372 28.1851C134.96 28.1851 134.565 28.0133 134.273 27.7075C133.982 27.4017 133.818 26.9869 133.818 26.5545V16.6331H124.108C123.724 16.591 123.367 16.4043 123.104 16.1073C122.967 15.9617 122.86 15.789 122.787 15.5993C122.715 15.4096 122.68 15.2067 122.683 15.0025C122.682 14.7881 122.722 14.5757 122.8 14.3775C122.878 14.1793 122.992 13.9992 123.136 13.8476C123.281 13.6961 123.452 13.576 123.641 13.4943C123.83 13.4127 124.032 13.3711 124.237 13.3719H146.507C146.712 13.3676 146.915 13.4077 147.105 13.4895C147.294 13.5714 147.465 13.6933 147.608 13.8476Z" fill="white"/>
<path id="Vector_7" d="M177.125 17.1494L179.383 19.2479L187.105 12.4579V1.4082L184.735 3.21252L183.529 4.1358L182.247 5.11698L181.957 5.33763C179.812 6.97607 177.38 8.83202 175.137 10.8726L174.804 11.17C173.983 11.9008 173.052 12.7348 172.523 14.0775C171.967 15.4736 171.934 17.0383 172.429 18.4592C173.131 20.3934 174.616 21.5639 175.927 22.5968C176.209 22.819 176.474 23.0287 176.726 23.2399C178.403 24.6483 180.116 26.0708 181.772 27.4432L183.72 29.0597V32.7857L172.068 23.1601L172.077 27.0723L186.706 39.2972V27.5418L186.141 27.0723L183.624 24.9848C181.971 23.6139 180.262 22.1977 178.592 20.7924C178.305 20.5514 178.008 20.323 177.719 20.0898C176.638 19.2369 175.615 18.431 175.22 17.3434C174.993 16.6689 175.016 15.9292 175.284 15.2715C175.538 14.6268 176.065 14.1573 176.735 13.5611C176.854 13.4568 176.973 13.3525 177.093 13.2481C179.239 11.2951 181.616 9.47988 183.714 7.879L184.003 7.65836L184.119 7.56916V10.9947L177.125 17.1494Z" fill="url(#paint0_linear_1246_1506)"/>
<path id="Vector_8" d="M170.44 17.7677L170.43 13.8554L155.797 1.63525V13.3813L156.362 13.8507C157.2 14.5487 158.039 15.2451 158.879 15.9399C160.53 17.3107 162.241 18.7269 163.909 20.1306C164.198 20.3732 164.495 20.6079 164.782 20.8348C165.865 21.6877 166.888 22.4936 167.283 23.5812C167.509 24.2559 167.486 24.9953 167.219 25.6531C166.965 26.2978 166.436 26.7673 165.768 27.362L165.41 27.6828C163.263 29.6357 160.887 31.451 158.789 33.0519L158.5 33.2725L158.384 33.3602V29.9331L165.383 23.7862L163.126 21.6814L155.403 28.4777V39.5243L157.774 37.7184L158.98 36.7951L160.262 35.8155L160.551 35.5948C162.697 33.9564 165.128 32.1004 167.372 30.0598C167.482 29.9597 167.593 29.8595 167.705 29.7625C168.525 29.0317 169.456 28.1976 169.986 26.8534C170.541 25.4573 170.575 23.8926 170.08 22.4717C169.376 20.5375 167.892 19.3685 166.582 18.3357C166.3 18.1135 166.035 17.9038 165.783 17.6925C164.106 16.2841 162.393 14.8617 160.735 13.4877L158.797 11.8727V8.13735L170.44 17.7677Z" fill="url(#paint1_linear_1246_1506)"/>
</g>
<defs>
<linearGradient id="paint0_linear_1246_1506" x1="172.068" y1="20.3511" x2="187.105" y2="20.3511" gradientUnits="userSpaceOnUse">
<stop stop-color="#FF0420"/>
<stop offset="1" stop-color="#BD2738"/>
</linearGradient>
<linearGradient id="paint1_linear_1246_1506" x1="155.403" y1="20.5751" x2="170.44" y2="20.5751" gradientUnits="userSpaceOnUse">
<stop stop-color="#FF0420"/>
<stop offset="1" stop-color="#BD2738"/>
</linearGradient>
</defs>
</svg>