<svg xmlns="http://www.w3.org/2000/svg" width="16" height="12" viewBox="0 0 16 12" fill="none">
<path id="Vector" d="M7.25112 9.60573C7.30882 9.60581 7.36594 9.61726 7.41921 9.63942C7.47249 9.66157 7.52088 9.69401 7.56163 9.73487C7.60237 9.77572 7.63466 9.82421 7.65667 9.87755C7.67867 9.93089 7.68996 9.98804 7.68987 10.0457C7.68979 10.1034 7.67835 10.1606 7.65619 10.2138C7.63403 10.2671 7.6016 10.3155 7.56074 10.3562C7.51988 10.397 7.4714 10.4293 7.41806 10.4513C7.36472 10.4733 7.30757 10.4846 7.24987 10.4845C7.13334 10.4843 7.02164 10.4379 6.93936 10.3554C6.85708 10.2728 6.81095 10.161 6.81111 10.0445C6.81128 9.92796 6.85773 9.81627 6.94025 9.73398C7.02276 9.6517 7.13459 9.60557 7.25112 9.60573ZM14.1412 6.88881C14.0835 6.88877 14.0264 6.87737 13.9731 6.85525C13.9198 6.83313 13.8714 6.80073 13.8306 6.7599C13.7899 6.71907 13.7575 6.67061 13.7355 6.61729C13.7134 6.56396 13.7021 6.50682 13.7022 6.44912C13.7022 6.39142 13.7136 6.33429 13.7357 6.281C13.7578 6.22771 13.7902 6.17929 13.8311 6.13852C13.8719 6.09775 13.9204 6.06542 13.9737 6.04338C14.027 6.02133 14.0842 6.01001 14.1419 6.01005C14.2584 6.01013 14.3701 6.0565 14.4525 6.13896C14.5348 6.22142 14.581 6.33321 14.5809 6.44974C14.5808 6.56628 14.5345 6.678 14.452 6.76034C14.3696 6.84268 14.2578 6.8889 14.1412 6.88881ZM14.1412 5.09128C13.781 5.09162 13.4355 5.23488 13.1808 5.48963C12.926 5.74437 12.7828 6.08979 12.7825 6.45006C12.7825 6.59568 12.8068 6.74069 12.8543 6.88194L8.36614 9.27135C8.24169 9.09065 8.07516 8.94292 7.88092 8.8409C7.68667 8.73888 7.47053 8.68562 7.25112 8.68572C6.73298 8.68572 6.2611 8.9826 6.03235 9.44573L2.00041 7.31945C1.57415 7.09569 1.2554 6.39443 1.28915 5.75567C1.30665 5.42254 1.42165 5.16379 1.59728 5.06378C1.70853 5.00128 1.84228 5.00628 1.98478 5.08066L2.01103 5.09504C3.0798 5.65754 6.57611 7.49945 6.72361 7.56757C6.95049 7.6732 7.07674 7.7157 7.46425 7.53195L14.6919 3.77314C14.7981 3.73314 14.9219 3.63126 14.9219 3.47688C14.9219 3.26313 14.7006 3.17875 14.7 3.17875C14.2887 2.98188 13.6568 2.68625 13.0406 2.39749C11.7231 1.78061 10.2299 1.08185 9.57428 0.738091C9.00802 0.441836 8.55239 0.69184 8.47114 0.741841L8.31363 0.819967C5.36234 2.27937 1.41227 4.23565 1.18727 4.37252C0.785389 4.61753 0.53601 5.10566 0.50351 5.71129C0.453509 6.67194 0.942892 7.67383 1.64353 8.04071L5.90735 10.2395C5.95432 10.5625 6.11593 10.8578 6.36265 11.0715C6.60937 11.2851 6.92473 11.4029 7.25112 11.4033C7.60758 11.4027 7.94957 11.2622 8.20355 11.0121C8.45753 10.762 8.60321 10.4222 8.60927 10.0657L13.3056 7.52007C13.5431 7.70633 13.8387 7.8082 14.1412 7.8082C14.5015 7.80787 14.8469 7.66461 15.1017 7.40986C15.3564 7.15512 15.4997 6.8097 15.5 6.44943C15.4997 6.08916 15.3564 5.74375 15.1017 5.489C14.8469 5.23425 14.5015 5.09099 14.1412 5.09066" fill="url(#paint0_linear_1202_7827)"/>
<defs>
<linearGradient id="paint0_linear_1202_7827" x1="8" y1="0.595703" x2="8" y2="11.4033" gradientUnits="userSpaceOnUse">
<stop stop-color="#FF0420"/>
<stop offset="1" stop-color="#BD2738"/>
</linearGradient>
</defs>
</svg>