<svg xmlns="http://www.w3.org/2000/svg" width="16" height="10" viewBox="0 0 16 10" fill="none">
<path id="Vector" d="M4.73913 1.41389C6.71685 1.41389 8.32609 3.02313 8.32609 5.00085C8.32609 6.97857 6.71685 8.58781 4.73913 8.58781C2.76141 8.58781 1.15217 6.97857 1.15217 5.00085C1.15217 3.02313 2.76141 1.41389 4.73913 1.41389ZM4.73913 0.761719C2.39783 0.761719 0.5 2.65955 0.5 5.00085C0.5 7.34215 2.39783 9.23998 4.73913 9.23998C7.08043 9.23998 8.97826 7.34215 8.97826 5.00085C8.97826 2.65955 7.08043 0.761719 4.73913 0.761719ZM11.4239 1.73998C12.1165 1.73998 12.8913 3.13465 12.8913 5.00085C12.8913 6.86705 12.1165 8.26172 11.4239 8.26172C10.7313 8.26172 9.95652 6.86705 9.95652 5.00085C9.95652 3.13465 10.7313 1.73998 11.4239 1.73998ZM11.4239 1.08781C10.2533 1.08781 9.30435 2.83987 9.30435 5.00085C9.30435 7.16183 10.2533 8.91389 11.4239 8.91389C12.5946 8.91389 13.5435 7.16183 13.5435 5.00085C13.5435 2.83987 12.5946 1.08781 11.4239 1.08781ZM14.6848 2.90639C14.7761 3.42194 14.8478 4.12922 14.8478 5.00085C14.8478 5.87248 14.7761 6.57976 14.6848 7.09531C14.5935 6.57976 14.5217 5.87248 14.5217 5.00085C14.5217 4.12922 14.5935 3.42194 14.6848 2.90639ZM14.6848 1.41389C14.2345 1.41389 13.8696 3.01987 13.8696 5.00085C13.8696 6.98183 14.2345 8.58781 14.6848 8.58781C15.1351 8.58781 15.5 6.98183 15.5 5.00085C15.5 3.01987 15.1351 1.41389 14.6848 1.41389Z" fill="url(#paint0_linear_1202_7244)"/>
<defs>
<linearGradient id="paint0_linear_1202_7244" x1="8" y1="0.761719" x2="8" y2="9.23998" gradientUnits="userSpaceOnUse">
<stop stop-color="#FF0420"/>
<stop offset="1" stop-color="#BD2738"/>
</linearGradient>
</defs>
</svg>