<svg width="13" height="13" viewBox="0 0 28 27" fill="none" xmlns="http://www.w3.org/2000/svg">
<path d="M10.9004 6.00258C10.9004 6.00258 8.06921 6.19556 6.21762 7.67046C6.20894 7.67391 6.19852 7.67908 6.18983 7.68425C5.8685 7.97888 5.62706 8.43548 5.32831 9.09023C5.02955 9.74498 4.71343 10.5875 4.42509 11.53C3.85016 13.4167 3.38292 15.7325 3.38292 17.9121C3.38118 17.9896 3.40029 18.0654 3.4385 18.1326C4.08812 19.2646 5.28315 19.9487 6.39827 20.3794C7.51339 20.8102 8.5434 20.9825 9.06622 20.9997C9.21386 21.0049 9.35456 20.9377 9.4414 20.8205L10.5253 19.3318C11.3989 19.5369 12.4237 19.6764 13.6101 19.6764C14.7964 19.6764 15.8212 19.5369 16.6949 19.3318L17.7788 20.8205C17.8656 20.9377 18.0063 21.0049 18.1539 20.9997C18.6768 20.9825 19.7068 20.8102 20.8219 20.3794C21.937 19.9487 23.132 19.2646 23.7817 18.1326C23.8199 18.0654 23.839 17.9896 23.8372 17.9121C23.8372 15.7325 23.37 13.4167 22.7951 11.53C22.5067 10.5875 22.1906 9.74498 21.8919 9.09023C21.5931 8.43548 21.3517 7.97888 21.0303 7.68425C21.0217 7.67908 21.0112 7.67391 21.0025 7.67046C19.151 6.19556 16.3197 6.00258 16.3197 6.00258C16.2867 5.99914 16.2555 5.99914 16.2225 6.00258C16.0679 6.02326 15.9376 6.1232 15.8751 6.26448C15.8751 6.26448 15.724 6.59358 15.6249 7.06396C14.7582 6.92612 14.0287 6.88477 13.6101 6.88477C13.1915 6.88477 12.462 6.92612 11.5952 7.06396C11.4962 6.59358 11.3451 6.26448 11.3451 6.26448C11.2687 6.09218 11.0898 5.98708 10.9004 6.00258ZM10.6225 6.95369C10.6555 7.04329 10.6781 7.12771 10.7059 7.22937C9.70368 7.46026 8.60593 7.8376 7.57939 8.46994C7.41786 8.53714 7.3119 8.69221 7.30669 8.86624C7.30322 9.03854 7.40222 9.19878 7.55855 9.27459C7.71661 9.34868 7.9042 9.32628 8.03795 9.21429C10.098 7.94787 12.719 7.76695 13.6101 7.76695C14.5011 7.76695 17.1222 7.94787 19.1822 9.21429C19.316 9.32628 19.5036 9.34868 19.6616 9.27459C19.8179 9.19878 19.917 9.03854 19.9135 8.86624C19.9083 8.69221 19.8023 8.53714 19.6408 8.46994C18.6142 7.8376 17.5165 7.46026 16.5143 7.22937C16.5421 7.12771 16.5646 7.04329 16.5976 6.95369C17.1048 7.01572 19.0763 7.27934 20.4189 8.3321C20.5058 8.41136 20.808 8.85245 21.0859 9.4624C21.3638 10.0724 21.6556 10.8667 21.9336 11.7781C22.4755 13.5563 22.9132 15.7497 22.934 17.7605C22.4286 18.572 21.4802 19.175 20.5023 19.5524C19.613 19.8953 18.7827 20.0486 18.3485 20.09L17.5981 19.0837C17.9803 18.9614 18.3242 18.8287 18.6264 18.6978C19.7485 18.2084 20.3495 17.6915 20.3495 17.6915C20.5336 17.5278 20.5492 17.247 20.3842 17.0644C20.2192 16.8817 19.9361 16.8662 19.7519 17.0299C19.7519 17.0299 19.2864 17.452 18.2651 17.8983C17.8899 18.062 17.4348 18.2239 16.9172 18.367C16.7974 18.3532 16.6775 18.3876 16.5837 18.4634C15.7552 18.6633 14.7704 18.7943 13.6101 18.7943C12.4411 18.7943 11.4545 18.6512 10.6225 18.4497C10.5287 18.3876 10.4141 18.3618 10.3029 18.3807C9.78358 18.2377 9.33198 18.062 8.95506 17.8983C7.93373 17.452 7.46823 17.0299 7.46823 17.0299C7.36749 16.9368 7.22853 16.8972 7.09305 16.9196C6.92109 16.9455 6.77866 17.0678 6.73176 17.2349C6.68313 17.4003 6.73871 17.5795 6.87072 17.6915C6.87072 17.6915 7.4717 18.2084 8.59377 18.6978C8.896 18.8287 9.23992 18.9614 9.62205 19.0837L8.87168 20.09C8.43745 20.0486 7.60718 19.8953 6.71787 19.5524C5.73996 19.175 4.79159 18.572 4.28614 17.7605C4.30698 15.7497 4.74469 13.5563 5.28662 11.7781C5.56453 10.8667 5.85634 10.0724 6.13425 9.4624C6.41216 8.85245 6.71439 8.41136 6.80124 8.3321C8.1439 7.27934 10.1153 7.01572 10.6225 6.95369ZM10.7198 12.1779C9.58557 12.1779 8.71883 13.1996 8.71883 14.3833C8.71883 15.5671 9.58557 16.5888 10.7198 16.5888C11.854 16.5888 12.7208 15.5671 12.7208 14.3833C12.7208 13.1996 11.854 12.1779 10.7198 12.1779ZM16.5004 12.1779C15.3661 12.1779 14.4994 13.1996 14.4994 14.3833C14.4994 15.5671 15.3661 16.5888 16.5004 16.5888C17.6346 16.5888 18.5013 15.5671 18.5013 14.3833C18.5013 13.1996 17.6346 12.1779 16.5004 12.1779ZM10.7198 13.0601C11.3052 13.0601 11.8314 13.6183 11.8314 14.3833C11.8314 15.1484 11.3052 15.7066 10.7198 15.7066C10.1344 15.7066 9.60815 15.1484 9.60815 14.3833C9.60815 13.6183 10.1344 13.0601 10.7198 13.0601ZM16.5004 13.0601C17.0857 13.0601 17.612 13.6183 17.612 14.3833C17.612 15.1484 17.0857 15.7066 16.5004 15.7066C15.915 15.7066 15.3887 15.1484 15.3887 14.3833C15.3887 13.6183 15.915 13.0601 16.5004 13.0601Z" fill="url(#paint0_linear_1202_7860)"/>
<defs>
<linearGradient id="paint0_linear_1202_7860" x1="13.6101" y1="6" x2="13.6101" y2="21" gradientUnits="userSpaceOnUse">
<stop stop-color="#FF0420"/>
<stop offset="1" stop-color="#BD2738"/>
</linearGradient>
</defs>
</svg>
