<svg xmlns="http://www.w3.org/2000/svg" width="29" height="28" viewBox="0 0 29 28" fill="none">
<g id="geckoTerminal.ce31b9c5 1">
<g id="Group">
<g id="Group_2">
<g id="Group_3">
<path id="Vector" d="M21.1405 12.4245L20.3146 11.5986C19.7522 12.0568 18.7795 12.4421 18.167 12.6417C18.1393 12.6505 18.113 12.6618 18.0854 12.6718C17.9235 12.8312 17.7653 12.9994 17.6172 13.1764L18.8234 14.3826L21.079 16.6382L21.1405 16.5767C22.2864 15.4294 22.2864 13.5705 21.1405 12.4245Z" fill="url(#paint0_linear_1202_7092)"/>
<path id="Vector_2" d="M21.1405 12.4245L20.3146 11.5986C19.7522 12.0568 18.7795 12.4421 18.167 12.6417C18.1393 12.6505 18.113 12.6618 18.0854 12.6718C17.9235 12.8312 17.7653 12.9994 17.6172 13.1764L18.8234 14.3826L21.079 16.6382L21.1405 16.5767C22.2864 15.4294 22.2864 13.5705 21.1405 12.4245Z" fill="url(#paint1_linear_1202_7092)"/>
<path id="Vector_3" d="M10.1774 14.3814L12.5259 12.0329C12.5874 11.8648 12.6539 11.6953 12.728 11.5296C13.4359 9.94308 15.0249 9.40461 16.5198 9.37825C16.7169 9.02931 17.0897 8.7971 17.5089 8.79208L16.5763 7.85948C15.4303 6.71351 13.5714 6.71351 12.4255 7.85948L12.3639 7.92099L7.92188 12.3631L10.1774 14.6186C10.1122 14.5533 10.1122 14.4467 10.1774 14.3814Z" fill="url(#paint2_linear_1202_7092)"/>
<path id="Vector_4" d="M10.1774 14.3814L12.5259 12.0329C12.5874 11.8648 12.6539 11.6953 12.728 11.5296C13.4359 9.94308 15.0249 9.40461 16.5198 9.37825C16.7169 9.02931 17.0897 8.7971 17.5089 8.79208L16.5763 7.85948C15.4303 6.71351 13.5714 6.71351 12.4255 7.85948L12.3639 7.92099L7.92188 12.3631L10.1774 14.6186C10.1122 14.5533 10.1122 14.4467 10.1774 14.3814Z" fill="url(#paint3_linear_1202_7092)"/>
<path id="Vector_5" d="M18.8235 14.3816C18.8887 14.4469 18.8887 14.5536 18.8235 14.6188L16.7461 16.6962L16.2353 17.207L14.8521 18.5902L14.6186 18.8237C14.5533 18.8889 14.4467 18.8889 14.3814 18.8237L12.279 16.7213L10.897 15.3393L10.1765 14.6188L7.92099 12.3633L7.85948 12.4248C6.71351 13.5708 6.71351 15.4297 7.85948 16.5757L8.38164 17.0978L12.3041 21.0202L12.4246 21.1407C13.5705 22.2867 15.4295 22.2867 16.5754 21.1407L16.6369 21.0792L21.079 16.6372L18.8235 14.3816Z" fill="url(#paint4_linear_1202_7092)"/>
</g>
</g>
<g id="Group_4">
<g id="Group_5">
<path id="Vector_6" d="M18.2879 9.57505C18.2879 9.57379 18.2879 9.57379 18.2879 9.57505C18.2063 9.3943 18.062 9.24368 17.8699 9.15582C17.8637 9.15331 17.8586 9.14954 17.8524 9.14703C17.8273 9.13574 17.8009 9.12695 17.7758 9.11816C17.7909 9.20854 17.7808 9.30519 17.7419 9.39556C17.7319 9.41815 17.7193 9.43949 17.7055 9.46083C17.5762 9.67044 17.3114 9.76081 17.0792 9.66166C16.9687 9.61521 16.8846 9.53237 16.8319 9.43447C16.798 9.48217 16.7679 9.53488 16.744 9.59137C16.5608 10.0206 16.7591 10.5164 17.1884 10.6997C17.6176 10.8829 18.1134 10.6846 18.2967 10.2554C18.3933 10.0282 18.3833 9.78341 18.2879 9.57505Z" fill="#242132"/>
<path id="Vector_7" d="M12.5325 12.0088C12.53 12.0163 12.525 12.0239 12.5238 12.0326C12.0882 14.3346 11.8736 14.6585 10.8945 15.3388L11.2422 15.6865C11.4694 15.4618 11.7957 15.0752 12.1045 14.4765C12.4848 13.7434 12.5376 12.6364 12.5325 12.0088Z" fill="url(#paint5_linear_1202_7092)"/>
<path id="Vector_8" d="M17.4849 13.0152C17.4786 13.0203 17.4711 13.0265 17.4661 13.0303C17.2477 13.206 17.0431 13.4294 16.8648 13.6968C16.3276 14.4989 16.0188 15.6975 16.2322 17.2063L16.231 17.2075C16.231 17.2075 16.231 17.2075 16.231 17.2088L17.0493 16.4055C17.0142 16.2862 16.9816 16.162 16.9514 16.0327C16.669 14.8378 16.8786 14.0508 17.6129 13.1784C17.7045 13.0692 17.9167 12.8521 18.1037 12.665C18.0962 12.6675 18.0899 12.6701 18.0823 12.6726C17.8778 12.7479 17.6769 12.8634 17.4849 13.0152Z" fill="url(#paint6_linear_1202_7092)"/>
<path id="Vector_9" d="M16.8659 13.6973C16.3287 14.4993 16.0187 15.698 16.2321 17.208L16.2333 17.2067C16.0199 15.698 16.3287 14.4993 16.8659 13.6973Z" fill="url(#paint7_linear_1202_7092)"/>
<path id="Vector_10" d="M16.8659 13.6973C16.3287 14.4993 16.0187 15.698 16.2321 17.208L16.2333 17.2067C16.0199 15.698 16.3287 14.4993 16.8659 13.6973Z" fill="url(#paint8_linear_1202_7092)"/>
<g id="Group_6">
<path id="Vector_11" d="M20.8835 10.4612C20.4028 9.78345 18.9455 9.46966 18.9455 9.46966C18.9455 9.46966 18.7472 8.91989 18.2339 8.74793C17.7694 8.59354 17.0703 8.87094 17.0703 8.87094L17.0804 8.87972C17.2134 8.82449 17.3577 8.79311 17.5084 8.7906C17.5448 8.7906 17.5799 8.7906 17.6163 8.79437C18.1184 8.83579 18.5188 9.19352 18.6368 9.65542C21.0844 10.2617 21.0555 10.9934 20.3137 11.5972C20.2848 11.621 20.2534 11.6449 20.2221 11.6675L20.2346 11.6788C20.2359 11.68 21.3442 11.1114 20.8835 10.4612Z" fill="url(#paint9_linear_1202_7092)"/>
<path id="Vector_12" d="M18.6366 9.65681C18.5173 9.1949 18.1182 8.83718 17.6161 8.79576C17.5797 8.79325 17.5433 8.79199 17.5082 8.79199C17.3576 8.79325 17.2132 8.82588 17.0802 8.88111C16.8442 8.98027 16.6459 9.15474 16.5204 9.37816C15.0242 9.40452 13.4364 9.94174 12.7285 11.5295C12.6582 11.6877 12.5954 11.8484 12.5352 12.009C12.5402 12.6366 12.4862 13.7449 12.1084 14.4767C11.7996 15.0754 11.4733 15.462 11.2461 15.6867L12.2804 16.7209L14.3828 18.8234C14.4481 18.8886 14.5547 18.8886 14.62 18.8234L14.8535 18.5899L16.2354 17.208C16.022 15.698 16.3321 14.4993 16.8693 13.6972C17.0488 13.4286 17.2534 13.2052 17.4718 13.0282C17.4781 13.0232 17.4831 13.0194 17.4893 13.0144C17.6801 12.8638 17.8822 12.7471 18.0868 12.6705C18.0943 12.668 18.1006 12.6655 18.1082 12.663C18.1282 12.6554 18.1483 12.6479 18.1684 12.6404C18.7483 12.4508 19.652 12.0944 20.2244 11.6676C20.2558 11.6438 20.2859 11.6212 20.316 11.5973C21.0553 10.9936 21.0842 10.2618 18.6366 9.65681ZM18.2977 10.2555C18.1144 10.6848 17.6174 10.8831 17.1894 10.6999C16.7601 10.5166 16.5618 10.0196 16.745 9.59154C16.7689 9.53506 16.799 9.48234 16.8329 9.43464C16.8856 9.53255 16.9697 9.61413 17.0802 9.66183C17.3136 9.76099 17.5785 9.67062 17.7065 9.461C17.709 9.45598 17.7115 9.45096 17.7153 9.44594C17.7253 9.42962 17.7354 9.41456 17.7429 9.39699C17.7818 9.30662 17.7918 9.20997 17.7768 9.11959C17.8031 9.12838 17.8282 9.13717 17.8534 9.14846C17.8596 9.15097 17.8646 9.15474 17.8709 9.15725C18.063 9.24511 18.2073 9.39573 18.2889 9.57522L18.2902 9.57648C18.2902 9.57648 18.2902 9.57648 18.2889 9.57648C18.3504 9.71329 18.3755 9.86517 18.3592 10.0183C18.3504 10.0974 18.3316 10.1777 18.2977 10.2555Z" fill="url(#paint10_linear_1202_7092)"/>
</g>
</g>
</g>
</g>
</g>
<defs>
<linearGradient id="paint0_linear_1202_7092" x1="19.8086" y1="11.5986" x2="19.8086" y2="16.6382" gradientUnits="userSpaceOnUse">
<stop stop-color="#FF0420"/>
<stop offset="1" stop-color="#BD2738"/>
</linearGradient>
<linearGradient id="paint1_linear_1202_7092" x1="19.8086" y1="11.5986" x2="19.8086" y2="16.6382" gradientUnits="userSpaceOnUse">
<stop stop-color="#FF0420"/>
<stop offset="1" stop-color="#BD2738"/>
</linearGradient>
<linearGradient id="paint2_linear_1202_7092" x1="12.7154" y1="7" x2="12.7154" y2="14.6186" gradientUnits="userSpaceOnUse">
<stop stop-color="#FF0420"/>
<stop offset="1" stop-color="#BD2738"/>
</linearGradient>
<linearGradient id="paint3_linear_1202_7092" x1="12.7154" y1="7" x2="12.7154" y2="14.6186" gradientUnits="userSpaceOnUse">
<stop stop-color="#FF0420"/>
<stop offset="1" stop-color="#BD2738"/>
</linearGradient>
<linearGradient id="paint4_linear_1202_7092" x1="14.0395" y1="12.3633" x2="14.0395" y2="22.0002" gradientUnits="userSpaceOnUse">
<stop stop-color="#FF0420"/>
<stop offset="1" stop-color="#BD2738"/>
</linearGradient>
<linearGradient id="paint5_linear_1202_7092" x1="11.7137" y1="12.0088" x2="11.7137" y2="15.6865" gradientUnits="userSpaceOnUse">
<stop stop-color="#FF0420"/>
<stop offset="1" stop-color="#BD2738"/>
</linearGradient>
<linearGradient id="paint6_linear_1202_7092" x1="17.1339" y1="12.665" x2="17.1339" y2="17.2088" gradientUnits="userSpaceOnUse">
<stop stop-color="#FF0420"/>
<stop offset="1" stop-color="#BD2738"/>
</linearGradient>
<linearGradient id="paint7_linear_1202_7092" x1="16.515" y1="13.6973" x2="16.515" y2="17.208" gradientUnits="userSpaceOnUse">
<stop stop-color="#FF0420"/>
<stop offset="1" stop-color="#BD2738"/>
</linearGradient>
<linearGradient id="paint8_linear_1202_7092" x1="16.515" y1="13.6973" x2="16.515" y2="17.208" gradientUnits="userSpaceOnUse">
<stop stop-color="#FF0420"/>
<stop offset="1" stop-color="#BD2738"/>
</linearGradient>
<linearGradient id="paint9_linear_1202_7092" x1="19.033" y1="8.70117" x2="19.033" y2="11.6788" gradientUnits="userSpaceOnUse">
<stop stop-color="#FF0420"/>
<stop offset="1" stop-color="#BD2738"/>
</linearGradient>
<linearGradient id="paint10_linear_1202_7092" x1="16.001" y1="8.79199" x2="16.001" y2="18.8723" gradientUnits="userSpaceOnUse">
<stop stop-color="#FF0420"/>
<stop offset="1" stop-color="#BD2738"/>
</linearGradient>
</defs>
</svg>