<svg xmlns="http://www.w3.org/2000/svg" width="16" height="14" viewBox="0 0 16 14" fill="none">
<path id="Vector" d="M14.615 0.179715C14.4489 0.187004 14.2871 0.233247 14.1413 0.291652C13.9969 0.349666 13.1658 0.704396 11.9385 1.22913C10.7112 1.75386 9.1158 2.43717 7.53431 3.11474C4.37132 4.46987 1.26315 5.80323 1.26315 5.80323L1.28581 5.79457C1.28581 5.79457 1.09821 5.85727 0.908017 5.98979C0.81292 6.05605 0.71061 6.14159 0.626841 6.2663C0.543071 6.39102 0.48183 6.56776 0.504909 6.7547C0.585972 7.41131 1.26648 7.59756 1.26648 7.59756L1.26915 7.59889L4.30611 8.63831C4.38354 8.89662 5.22724 11.7126 5.41283 12.3089C5.51532 12.6386 5.61126 12.8288 5.71133 12.9586C5.7614 13.0235 5.81388 13.0737 5.8719 13.1105C5.89496 13.1251 5.9192 13.136 5.9432 13.1458H5.94453C5.94748 13.1471 5.95025 13.1472 5.95319 13.1484L5.9452 13.1465C5.95077 13.1487 5.95627 13.1525 5.96185 13.1544C5.97268 13.1582 5.97931 13.1581 5.99317 13.1611C6.34098 13.2825 6.62881 13.0572 6.62881 13.0572L6.64081 13.0478L8.50643 11.3175L11.5341 13.6782L11.572 13.6955C12.102 13.9308 12.5813 13.7995 12.8467 13.5835C13.1121 13.3676 13.2165 13.0891 13.2165 13.0891L13.2278 13.0598L15.4525 1.46433C15.5095 1.20491 15.5176 0.980673 15.4639 0.778046C15.4102 0.575419 15.2797 0.399276 15.1161 0.301646C14.9524 0.204016 14.7812 0.172425 14.615 0.179715ZM14.633 0.873326C14.7005 0.870201 14.7505 0.877915 14.7663 0.887318C14.782 0.896721 14.7891 0.895484 14.8042 0.952615C14.8194 1.00975 14.8276 1.13008 14.7862 1.31841L14.7849 1.32241L12.5728 12.8506C12.5676 12.8622 12.5215 12.9689 12.4162 13.0545C12.3089 13.1419 12.1895 13.2101 11.8725 13.0772L8.56173 10.4953L8.46845 10.422L8.46645 10.424L7.47634 9.68106L13.0406 3.13473C13.0833 3.08455 13.1106 3.02307 13.1192 2.95771C13.1277 2.89235 13.1172 2.82591 13.0888 2.76643C13.0604 2.70694 13.0153 2.65696 12.9591 2.62252C12.9029 2.58808 12.8379 2.57067 12.772 2.57237C12.7076 2.57405 12.645 2.59391 12.5915 2.62968L4.53998 7.99733L1.49835 6.95592C1.49835 6.95592 1.19632 6.78784 1.18186 6.67074C1.18106 6.66426 1.1775 6.67013 1.19319 6.64676C1.20889 6.62339 1.24834 6.58394 1.2978 6.54948C1.39672 6.48055 1.50968 6.43887 1.50968 6.43887L1.52101 6.43488L1.53233 6.43021C1.53233 6.43021 4.64067 5.09679 7.80349 3.74172C9.3849 3.06419 10.98 2.38138 12.207 1.85678C13.4337 1.33231 14.3201 0.954803 14.3951 0.924631C14.4806 0.890415 14.5655 0.876451 14.633 0.873326ZM10.9431 4.5486L6.72343 9.51315L6.72143 9.51515C6.71484 9.52308 6.70861 9.53131 6.70277 9.5398C6.69608 9.54904 6.68985 9.5586 6.68412 9.56845C6.66041 9.60869 6.64521 9.65337 6.63947 9.69971C6.63947 9.7006 6.63947 9.70149 6.63947 9.70238L6.08978 12.1743C6.08064 12.1476 6.07424 12.1378 6.06446 12.1064V12.1057C5.88987 11.5447 5.09387 8.889 4.98373 8.52171L10.9431 4.5486ZM7.19983 10.3267L7.95807 10.8957L6.84403 11.9285L7.19983 10.3267Z" fill="url(#paint0_linear_1202_8182)"/>
<defs>
<linearGradient id="paint0_linear_1202_8182" x1="8" y1="0.178711" x2="8" y2="13.8204" gradientUnits="userSpaceOnUse">
<stop stop-color="#FF0420"/>
<stop offset="1" stop-color="#BD2738"/>
</linearGradient>
</defs>
</svg>