<svg xmlns="http://www.w3.org/2000/svg" width="16" height="14" viewBox="0 0 16 14" fill="none">
<g id="Group 24">
<path id="Vector" d="M6.9167 8.45952C6.63255 8.75582 6.35452 9.04382 6.07741 9.333C4.70311 10.7677 3.33004 12.2033 1.95819 13.64C1.85611 13.7469 1.75496 13.7934 1.60353 13.7881C1.25224 13.7774 0.900335 13.7849 0.5 13.7849L6.32846 7.69715L0.548432 0.226633C0.611885 0.221003 0.653574 0.213891 0.694956 0.213891C2.08458 0.213891 3.47421 0.213102 4.86384 0.211521C4.90849 0.208515 4.95315 0.217158 4.99317 0.236548C5.03318 0.255937 5.06707 0.285362 5.09129 0.321744C6.28739 1.87295 7.48574 3.42268 8.68633 4.97093C8.71975 5.01389 8.75469 5.05597 8.82642 5.14456C8.85339 5.09478 8.86719 5.04885 8.89723 5.01774C10.3917 3.45508 11.8864 1.89281 13.3812 0.330929C13.46 0.248262 13.5385 0.209151 13.6571 0.21241C13.979 0.22041 14.3008 0.214781 14.6227 0.21567C14.6711 0.21567 14.7196 0.220707 14.8017 0.225447L9.38891 5.8773L15.5 13.7763C15.4258 13.7798 15.3774 13.7846 15.3296 13.7846C13.9502 13.7846 12.5707 13.7854 11.1913 13.7872C11.1443 13.7908 11.0971 13.7821 11.0547 13.7621C11.0123 13.742 10.9763 13.7113 10.9504 13.6732C9.65355 11.9912 8.35446 10.3108 7.05311 8.63196C7.0105 8.57685 6.96667 8.52263 6.9167 8.45952ZM13.5618 12.8462C13.5112 12.7763 13.4784 12.7277 13.4428 12.6823C12.5625 11.5444 11.6819 10.4069 10.8011 9.26989C8.73425 6.59868 6.66821 3.92708 4.60298 1.25508C4.5786 1.21868 4.5446 1.18925 4.50451 1.16981C4.46441 1.15038 4.41967 1.14166 4.37491 1.14456C3.7925 1.1493 3.21008 1.14663 2.62766 1.14722C2.58536 1.14722 2.54306 1.15315 2.48451 1.1576C2.52037 1.20737 2.54245 1.23997 2.56666 1.27108L8.06069 8.37093C9.18568 9.82495 10.3115 11.2784 11.4381 12.7312C11.4783 12.7828 11.5537 12.8406 11.6131 12.8414C12.2513 12.8494 12.8895 12.8462 13.5618 12.8462Z" fill="url(#paint0_linear_1202_7894)"/>
</g>
<defs>
<linearGradient id="paint0_linear_1202_7894" x1="8" y1="0.210937" x2="8" y2="13.7885" gradientUnits="userSpaceOnUse">
<stop stop-color="#FF0420"/>
<stop offset="1" stop-color="#BD2738"/>
</linearGradient>
</defs>
</svg>